<?xml version="1.0" encoding="UTF-8"?>
<svg xmlns="http://www.w3.org/2000/svg" viewBox="-8 -8 377.44 89.12" fill="none" role="img" aria-labelledby="title">
  <title id="title">Thingport wordmark — White</title>
  <path fill="#FFFFFF" d="M26.880 57.120L16.320 57.120L16.320 10.720L0 10.720L0 1.120L43.200 1.120L43.200 10.720L26.880 10.720 M58.400 57.120L48.320 57.120L48.320 1.120L58.400 1.120L58.400 22.320L59.840 22.320Q60.480 21.040 61.840 19.760Q63.200 18.480 65.480 17.640Q67.760 16.800 71.280 16.800Q75.920 16.800 79.400 18.920Q82.880 21.040 84.800 24.760Q86.720 28.480 86.720 33.440L86.720 57.120L76.640 57.120L76.640 34.240Q76.640 29.760 74.440 27.520Q72.240 25.280 68.160 25.280Q63.520 25.280 60.960 28.360Q58.400 31.440 58.400 36.960 M105.280 57.120L95.200 57.120L95.200 17.440L105.280 17.440L105.280 57.120M100.240 12.800Q97.520 12.800 95.640 11.040Q93.760 9.280 93.760 6.400Q93.760 3.520 95.640 1.760Q97.520 0 100.240 0Q103.040 0 104.880 1.760Q106.720 3.520 106.720 6.400Q106.720 9.280 104.880 11.040Q103.040 12.800 100.240 12.800 M124.160 57.120L114.080 57.120L114.080 17.440L124 17.440L124 22.640L125.440 22.640Q126.400 20.560 129.040 18.680Q131.680 16.800 137.040 16.800Q141.680 16.800 145.160 18.920Q148.640 21.040 150.560 24.760Q152.480 28.480 152.480 33.440L152.480 57.120L142.400 57.120L142.400 34.240Q142.400 29.760 140.200 27.520Q138 25.280 133.920 25.280Q129.280 25.280 126.720 28.360Q124.160 31.440 124.160 36.960 M159.040 37.440L159.040 36.160Q159.040 29.920 161.520 25.480Q164 21.040 168.120 18.680Q172.240 16.320 177.120 16.320Q182.560 16.320 185.360 18.240Q188.160 20.160 189.440 22.240L190.880 22.240L190.880 17.440L200.800 17.440L200.800 64.160Q200.800 68.240 198.400 70.680Q196 73.120 192 73.120L165.440 73.120L165.440 64.320L188.480 64.320Q190.720 64.320 190.720 61.920L190.720 51.600L189.280 51.600Q188.480 52.880 187.040 54.200Q185.600 55.520 183.200 56.400Q180.800 57.280 177.120 57.280Q172.240 57.280 168.120 54.920Q164 52.560 161.520 48.120Q159.040 43.680 159.040 37.440M180 48.480Q184.640 48.480 187.760 45.520Q190.880 42.560 190.880 37.200L190.880 36.400Q190.880 30.960 187.800 28.040Q184.720 25.120 180 25.120Q175.360 25.120 172.240 28.040Q169.120 30.960 169.120 36.400L169.120 37.200Q169.120 42.560 172.240 45.520Q175.360 48.480 180 48.480 M219.680 73.120L209.600 73.120L209.600 17.440L219.520 17.440L219.520 22.240L220.960 22.240Q222.320 19.920 225.200 18.120Q228.080 16.320 233.440 16.320Q238.240 16.320 242.320 18.680Q246.400 21.040 248.880 25.600Q251.360 30.160 251.360 36.640L251.360 37.920Q251.360 44.400 248.880 48.960Q246.400 53.520 242.320 55.880Q238.240 58.240 233.440 58.240Q229.840 58.240 227.400 57.400Q224.960 56.560 223.480 55.240Q222 53.920 221.120 52.560L219.680 52.560L219.680 73.120M230.400 49.440Q235.120 49.440 238.200 46.440Q241.280 43.440 241.280 37.680L241.280 36.880Q241.280 31.120 238.160 28.120Q235.040 25.120 230.400 25.120Q225.760 25.120 222.640 28.120Q219.520 31.120 219.520 36.880L219.520 37.680Q219.520 43.440 222.640 46.440Q225.760 49.440 230.400 49.440 M277.120 58.240Q271.200 58.240 266.480 55.840Q261.760 53.440 259.040 48.880Q256.320 44.320 256.320 37.920L256.320 36.640Q256.320 30.240 259.040 25.680Q261.760 21.120 266.480 18.720Q271.200 16.320 277.120 16.320Q283.040 16.320 287.760 18.720Q292.480 21.120 295.200 25.680Q297.920 30.240 297.920 36.640L297.920 37.920Q297.920 44.320 295.200 48.880Q292.480 53.440 287.760 55.840Q283.040 58.240 277.120 58.240M277.120 49.280Q281.760 49.280 284.800 46.280Q287.840 43.280 287.840 37.680L287.840 36.880Q287.840 31.280 284.840 28.280Q281.840 25.280 277.120 25.280Q272.480 25.280 269.440 28.280Q266.400 31.280 266.400 36.880L266.400 37.680Q266.400 43.280 269.440 46.280Q272.480 49.280 277.120 49.280 M314.880 57.120L304.800 57.120L304.800 17.440L314.720 17.440L314.720 21.920L316.160 21.920Q317.040 19.520 319.080 18.400Q321.120 17.280 323.840 17.280L328.640 17.280L328.640 26.240L323.680 26.240Q319.840 26.240 317.360 28.280Q314.880 30.320 314.880 34.560 M360.480 57.120L349.280 57.120Q345.360 57.120 342.920 54.680Q340.480 52.240 340.480 48.160L340.480 25.760L330.560 25.760L330.560 17.440L340.480 17.440L340.480 5.120L350.560 5.120L350.560 17.440L361.440 17.440L361.440 25.760L350.560 25.760L350.560 46.400Q350.560 48.800 352.800 48.800L360.480 48.800"/>
</svg>
